<svg xmlns="http://www.w3.org/2000/svg" viewBox="0 0 24 24"><path d="M16 14h1.5v2.8l2.4 1.4-.7 1.3-3.2-1.8V14m1-2a5 5 0 0 0-5 5 5 5 0 0 0 5 5 5 5 0 0 0 5-5 5 5 0 0 0-5-5m0-2a7 7 0 0 1 7 7 7 7 0 0 1-7 7 7 7 0 0 1-6.3-4H1v-3c0-2.7 5.3-4 8-4 .6 0 1.3 0 2.1.2A7 7 0 0 1 17 10m-7 7c0-.7.1-1.4.3-2a8 8 0 0 0-1.3-.1c-3 0-6.1 1.5-6.1 2.1v1.1h7.2L10 17M9 4a4 4 0 0 1 4 4 4 4 0 0 1-4 4 4 4 0 0 1-4-4 4 4 0 0 1 4-4m0 1.9A2.1 2.1 0 0 0 6.9 8 2.1 2.1 0 0 0 9 10.1 2.1 2.1 0 0 0 11.1 8 2.1 2.1 0 0 0 9 5.9Z"/></svg>